<svg width="107" height="124" fill="none" xmlns="http://www.w3.org/2000/svg"><path d="M.758 23.273L6.48 28h8.008l2.637-2.207.8 2.207h9.317v-6.113l-3.047-.801V4.563l-5.43-4.57H6.52l-5.45 4.57v5.273h7.48l.802-2.91h5.566l1.035.8v2.676L5.445 12.043.758 15.676v7.597zm8.32-2.988v-1.484l.762-.684 6.113-1.406v3.574l-1.035.84h-4.844l-.996-.84zM29.781 28h13.125v-6.113l-1.836-.801V7.726l1.035-.84h4.844l.996.84v13.36l-1.836.8V28h13.203v-6.113l-3.046-.801V4.719L50.543-.008h-8.438L39.47 2.2l-.801-2.207h-8.887v6.133l3.047.8v14.16l-3.047.802V28zM60.7 11.555h5.918l.801-5.078h3.086v14.648l-3.418.8V28h15.137v-6.074l-3.438-.801V6.477h3.067l.8 5.078h5.88V-.008H60.698v11.563zM91.91 28h14.317v-6.074l-3.028-.801v-14.2l3.028-.8V-.008H91.91v6.133l3.047.8v14.2l-3.047.8V28zM.89 60.247L7.818 66h11.905l3.045-2.498a186.3 186.3 0 003.065-2.583V55.46h-8.041l-.861 3.15h-5.9L9.75 57.58V44.333l1.239-.987h5.942l.86 3.129h8.042v-5.67l-5.858-4.912H7.566L.89 41.456v18.791zm28.806.672L35.848 66h8.608l2.835-2.373.86 2.373h10.016v-6.572l-3.275-.86V40.804l-5.837-4.913H35.89l-5.858 4.913v5.669h8.042l.86-3.129h5.985l1.112.861v2.877l-11.296 1.763-5.039 3.906v8.167zm8.945-3.212V56.11l.819-.735 6.571-1.512v3.843l-1.112.902H39.71l-1.07-.903zm22.087 3.212L66.838 66h12.934l6.152-5.081v-8.587l-5.04-3.927-10.35-1.721-.945-.714v-1.764l1.113-.86h5.984l.86 3.128h8.042v-5.67l-5.858-4.912H66.565l-5.837 4.913v8.21l5.124 4.22 10.309 1.721.819.714v2.036l-1.071.903H69.63l-.861-3.149h-8.041v5.459zM90.606 66h15.39v-6.53l-3.254-.86V43.344l3.254-.86v-6.593h-15.39v6.592l3.275.861V58.61l-3.275.861V66zM2.208 124H26.09v-11.085l-5.56-1.462V95.52L37.39 124h14.756V85.54l5.56-1.462V72.886H33.754v11.192l5.525 1.462v14.649L24.13 72.886H2.208v11.192l5.56 1.462v25.913l-5.56 1.462V124zm60.952-9.125L74.174 124h20.888a333.378 333.378 0 005.525-4.562 464.768 464.768 0 015.56-4.563V81.797L95.49 72.886H73.818l-10.658 8.91v33.079zm15.042-5.097V87.072l1.96-1.532h8.983l1.96 1.532v22.706l-2.031 1.675h-8.84l-2.032-1.675z" fill="#000"/></svg>